<svg 
 xmlns="http://www.w3.org/2000/svg"
 xmlns:xlink="http://www.w3.org/1999/xlink"
 width="594px" height="639px">
<path fill-rule="evenodd"  fill="rgb(68, 68, 79)"
 d="M5.000,0.000 L439.969,0.000 C442.730,0.000 444.969,2.239 444.969,5.000 L444.969,634.000 C444.969,636.761 442.730,639.000 439.969,639.000 L5.000,639.000 C2.239,639.000 0.000,636.761 0.000,634.000 L0.000,5.000 C0.000,2.239 2.239,0.000 5.000,0.000 Z"/>
<path fill-rule="evenodd"  fill="rgb(101, 228, 150)"
 d="M376.051,536.046 L541.470,370.655 C553.478,358.649 572.948,358.649 584.956,370.655 C596.964,382.661 596.964,402.128 584.956,414.134 L419.537,579.526 C407.529,591.531 388.059,591.531 376.051,579.526 C364.043,567.519 364.043,548.053 376.051,536.046 Z"/>
<path fill-rule="evenodd"  fill="rgb(101, 228, 150)"
 d="M295.258,490.231 L460.677,324.840 C472.685,312.834 492.155,312.834 504.163,324.840 C516.172,336.847 516.172,356.313 504.163,368.319 L338.745,533.710 C326.736,545.717 307.267,545.717 295.258,533.710 C283.250,521.704 283.250,502.237 295.258,490.231 Z"/>
<path fill-rule="evenodd"  fill="rgb(61, 61, 71)"
 d="M-0.000,0.000 L62.719,0.000 L62.719,639.000 L-0.000,639.000 L-0.000,0.000 Z"/>
</svg>