<?xml version="1.0" encoding="utf-8"?>
<!-- Generator: Adobe Illustrator 22.0.1, SVG Export Plug-In . SVG Version: 6.00 Build 0)  -->
<svg version="1.1" id="book_img" xmlns="http://www.w3.org/2000/svg" xmlns:xlink="http://www.w3.org/1999/xlink" x="0px" y="0px"
	 viewBox="0 0 363.8 409" style="enable-background:new 0 0 363.8 409;" xml:space="preserve">
<style type="text/css">
	.st0{fill:#44444F;}
	.st1{fill:#65E496;}
	.st2{fill:#3D3D47;}
</style>
<path id="book" class="st0" d="M5,0h259c2.8,0,5,2.2,5,5v399c0,2.8-2.2,5-5,5H5c-2.8,0-5-2.2-5-5V5C0,2.2,2.2,0,5,0z"/>
<path class="st1" d="M269,294.9C269,294.9,269,294.9,269,294.9l-13.3,7.9c-2.4,1.4-5.5,0.5-6.8-1.9c-1.3-2.4-0.5-5.4,1.8-6.8
	l18.3-10.9"/>
<path id="Rectangle_11_copy_1_" class="st1" d="M269,267.9C269,267.9,269,267.9,269,267.9l-13.3,7.9c-2.4,1.4-5.5,0.5-6.8-1.9
	c-1.3-2.4-0.5-5.4,1.8-6.8l18.3-10.9"/>
<rect class="st2" width="37.9" height="409"/>
</svg>
